<svg xmlns="http://www.w3.org/2000/svg" width="290" height="292" fill="none"><path fill="#fff" d="M289.086 241.583 159.306 5.04c-.499-.91-1.884-.55-1.876.489l.467 60.28c.001.167.044.33.125.477l56.609 102.293a1 1 0 0 1 0 .969l-39.909 72.031a1 1 0 0 0 .874 1.485H288.21a1 1 0 0 0 .876-1.481"/><path fill="#fff" d="M144.268 97c.77-1.333 2.694-1.333 3.464 0l31.177 54c.77 1.333-.192 3-1.732 3h-62.354c-1.54 0-2.502-1.667-1.732-3zM176.818 180.641c1.54 0 2.502 1.667 1.732 3l-31.177 54c-.77 1.333-2.694 1.333-3.464 0l-31.177-54c-.77-1.333.193-3 1.732-3z"/><path fill="#fff" d="M.813 241.582 130.593 5.04c.499-.91 1.884-.55 1.876.489l-.467 60.28a1 1 0 0 1-.125.477L75.268 168.579a1 1 0 0 0 0 .969l39.909 72.031a1 1 0 0 1-.874 1.484H1.689a1 1 0 0 1-.876-1.481"/></svg>
